<svg width="19" height="18" viewBox="0 0 19 18" fill="none" xmlns="http://www.w3.org/2000/svg">
<path fill-rule="evenodd" clip-rule="evenodd" d="M9.66664 0C4.69809 0 0.666641 4.03145 0.666641 9C0.666641 13.9686 4.69809 18 9.66664 18C14.6254 18 18.6666 13.9686 18.6666 9C18.6666 4.03145 14.6254 0 9.66664 0ZM15.6113 4.14859C16.685 5.45662 17.3293 7.1258 17.3488 8.9317C17.095 8.8829 14.557 8.3655 11.9996 8.6876C11.941 8.5607 11.8922 8.4241 11.8336 8.2874C11.6774 7.9165 11.5018 7.5358 11.326 7.1746C14.1568 6.0228 15.4453 4.36334 15.6113 4.14859ZM9.66664 1.32755C11.6189 1.32755 13.4052 2.05966 14.7621 3.26031C14.6254 3.45553 13.4638 5.00759 10.7306 6.03253C9.47144 3.71909 8.07554 1.82538 7.86084 1.53254C8.43664 1.39588 9.04194 1.32755 9.66664 1.32755ZM6.3966 2.04989C6.60158 2.32321 7.96814 4.22668 9.24694 6.49131C5.65471 7.448 2.48226 7.4284 2.14061 7.4284C2.63844 5.04664 4.24907 3.06507 6.3966 2.04989ZM1.97467 9.0098C1.97467 8.9317 1.97467 8.8536 1.97467 8.7755C2.30655 8.7852 6.0354 8.8341 9.87164 7.6822C10.0961 8.1117 10.3011 8.551 10.4963 8.9902C10.3987 9.0195 10.2913 9.0488 10.1937 9.0781C6.23063 10.3568 4.12217 13.8514 3.94647 14.1442C2.72629 12.7874 1.97467 10.9816 1.97467 9.0098ZM9.66664 16.692C7.89004 16.692 6.25016 16.0868 4.95189 15.0716C5.08855 14.7885 6.65035 11.782 10.9844 10.269C11.0039 10.2592 11.0137 10.2592 11.0332 10.2495C12.1167 13.051 12.556 15.4034 12.6731 16.077C11.7458 16.4772 10.7306 16.692 9.66664 16.692ZM13.9518 15.3742C13.8738 14.9056 13.4638 12.6605 12.4583 9.898C14.8694 9.5173 16.9779 10.1421 17.2415 10.23C16.9096 12.3677 15.6796 14.2126 13.9518 15.3742Z" fill="black"/>
</svg>
